<svg xmlns="http://www.w3.org/2000/svg" width="60" height="60" viewBox="0 0 60 60" fill="none">
    <path d="M39.625 51.5625C39.625 51.4244 39.5131 51.3125 39.375 51.3125H34.6875C34.3726 51.3125 34.0705 51.4376 33.8478 51.6603C33.6251 51.883 33.5 52.1851 33.5 52.5V57.1875C33.5 57.3256 33.6119 57.4375 33.75 57.4375H35.625C35.7631 57.4375 35.875 57.3256 35.875 57.1875V55.3642L38.5323 58.0296C38.5792 58.0766 38.6428 58.1031 38.7092 58.1031C38.7756 58.1032 38.8392 58.0768 38.8862 58.0299L40.2174 56.6987C40.2643 56.6517 40.2907 56.5881 40.2906 56.5217C40.2906 56.4553 40.2641 56.3917 40.2171 56.3448L37.5517 53.6875H39.375C39.5131 53.6875 39.625 53.5756 39.625 53.4375V51.5625Z" fill="white" stroke="#F6CB45" stroke-width="0.5" stroke-linejoin="round" />
    <mask id="path-2-outside-1_21_1185" maskUnits="userSpaceOnUse" x="-0.0625" y="0.871094" width="60" height="57" fill="black">
        <rect fill="white" x="-0.0625" y="0.871094" width="60" height="57" />
        <path d="M58.5844 23.5592L50.1469 18.8717C50.0044 18.7894 49.8427 18.7461 49.6782 18.7461C49.5136 18.7461 49.3519 18.7894 49.2094 18.8717L43.9032 21.8154L37.7532 18.3186L38.8782 17.6904C39.0265 17.6115 39.1508 17.4941 39.2383 17.3506C39.3257 17.2072 39.3729 17.0428 39.375 16.8748V7.49982C39.3748 7.3337 39.3303 7.17064 39.2463 7.02732C39.1623 6.88401 39.0417 6.76559 38.8969 6.6842L30.4594 1.9967C30.3169 1.91441 30.1552 1.87109 29.9907 1.87109C29.8261 1.87109 29.6644 1.91441 29.5219 1.9967L21.0844 6.6842C20.9431 6.76798 20.8263 6.88742 20.7456 7.03057C20.665 7.17372 20.6234 7.33554 20.625 7.49982V16.8748C20.6253 17.0409 20.6698 17.204 20.7538 17.3473C20.8378 17.4906 20.9584 17.609 21.1032 17.6904L22.2282 18.3186L16.0782 21.8154L10.7719 18.8717C10.6294 18.7894 10.4677 18.7461 10.3032 18.7461C10.1386 18.7461 9.97694 18.7894 9.83442 18.8717L1.39692 23.5592C1.2556 23.643 1.13877 23.7624 1.05815 23.9056C0.977526 24.0487 0.935935 24.2105 0.937545 24.3748V33.7498C0.937831 33.9159 0.982253 34.079 1.06626 34.2223C1.15028 34.3656 1.27086 34.484 1.41567 34.5654L9.85317 39.2529C9.99569 39.3352 10.1574 39.3785 10.3219 39.3785C10.4865 39.3785 10.6482 39.3352 10.7907 39.2529L12.7594 38.1654L20.625 42.6373V56.2498C20.625 56.4985 20.7238 56.7369 20.8996 56.9127C21.0754 57.0886 21.3139 57.1873 21.5625 57.1873H31.875V55.3123H22.5V40.3123H37.5V49.6873H39.375V42.6373L47.2594 38.1654L49.2282 39.2529C49.3707 39.3352 49.5324 39.3785 49.6969 39.3785C49.8615 39.3785 50.0232 39.3352 50.1657 39.2529L58.6032 34.5654C58.7445 34.4817 58.8613 34.3622 58.9419 34.2191C59.0226 34.0759 59.0642 33.9141 59.0625 33.7498V24.3748C59.0623 24.2087 59.0178 24.0456 58.9338 23.9023C58.8498 23.759 58.7292 23.6406 58.5844 23.5592ZM30 3.88107L36.5063 7.49982L30 11.1186L23.4938 7.49982L30 3.88107ZM37.5 9.09357V16.3217L30.9375 19.9686V12.7404L37.5 9.09357ZM22.5 9.09357L29.0625 12.7404V19.9686L22.5 16.3217V9.09357ZM9.37504 36.8436L2.81254 33.1967V25.9686L9.37504 29.6154V36.8436ZM10.3125 27.9936L3.80629 24.3748L10.3125 20.7561L16.8188 24.3748L10.3125 27.9936ZM11.25 36.8436V29.6154L17.8125 25.9686V33.1967L11.25 36.8436ZM39.375 40.4811V39.3748C39.375 39.1262 39.2763 38.8877 39.1005 38.7119C38.9246 38.5361 38.6862 38.4373 38.4375 38.4373H21.5625C21.3139 38.4373 21.0754 38.5361 20.8996 38.7119C20.7238 38.8877 20.625 39.1262 20.625 39.3748V40.4811L14.6532 37.0967L19.2094 34.5654C19.3542 34.484 19.4748 34.3656 19.5588 34.2223C19.6428 34.079 19.6873 33.9159 19.6875 33.7498V24.3748C19.6873 24.2087 19.6428 24.0456 19.5588 23.9023C19.4748 23.759 19.3542 23.6406 19.2094 23.5592L17.9907 22.8842L24.15 19.3873L29.5407 22.3779C29.6832 22.4602 29.8449 22.5035 30.0094 22.5035C30.174 22.5035 30.3356 22.4602 30.4782 22.3779L35.8688 19.3873L42.0282 22.8842L40.8094 23.5592C40.6611 23.6381 40.5368 23.7555 40.4493 23.899C40.3619 24.0425 40.3147 24.2068 40.3125 24.3748V33.7498C40.3128 33.9159 40.3573 34.079 40.4413 34.2223C40.5253 34.3656 40.6459 34.484 40.7907 34.5654L45.3469 37.0967L39.375 40.4811ZM48.75 36.8436L42.1875 33.1967V25.9686L48.75 29.6154V36.8436ZM49.6875 27.9936L43.1813 24.3748L49.6875 20.7561L56.1938 24.3748L49.6875 27.9936ZM57.1875 33.1967L50.625 36.8436V29.6154L57.1875 25.9686V33.1967Z" />
    </mask>
    <path d="M58.5844 23.5592L50.1469 18.8717C50.0044 18.7894 49.8427 18.7461 49.6782 18.7461C49.5136 18.7461 49.3519 18.7894 49.2094 18.8717L43.9032 21.8154L37.7532 18.3186L38.8782 17.6904C39.0265 17.6115 39.1508 17.4941 39.2383 17.3506C39.3257 17.2072 39.3729 17.0428 39.375 16.8748V7.49982C39.3748 7.3337 39.3303 7.17064 39.2463 7.02732C39.1623 6.88401 39.0417 6.76559 38.8969 6.6842L30.4594 1.9967C30.3169 1.91441 30.1552 1.87109 29.9907 1.87109C29.8261 1.87109 29.6644 1.91441 29.5219 1.9967L21.0844 6.6842C20.9431 6.76798 20.8263 6.88742 20.7456 7.03057C20.665 7.17372 20.6234 7.33554 20.625 7.49982V16.8748C20.6253 17.0409 20.6698 17.204 20.7538 17.3473C20.8378 17.4906 20.9584 17.609 21.1032 17.6904L22.2282 18.3186L16.0782 21.8154L10.7719 18.8717C10.6294 18.7894 10.4677 18.7461 10.3032 18.7461C10.1386 18.7461 9.97694 18.7894 9.83442 18.8717L1.39692 23.5592C1.2556 23.643 1.13877 23.7624 1.05815 23.9056C0.977526 24.0487 0.935935 24.2105 0.937545 24.3748V33.7498C0.937831 33.9159 0.982253 34.079 1.06626 34.2223C1.15028 34.3656 1.27086 34.484 1.41567 34.5654L9.85317 39.2529C9.99569 39.3352 10.1574 39.3785 10.3219 39.3785C10.4865 39.3785 10.6482 39.3352 10.7907 39.2529L12.7594 38.1654L20.625 42.6373V56.2498C20.625 56.4985 20.7238 56.7369 20.8996 56.9127C21.0754 57.0886 21.3139 57.1873 21.5625 57.1873H31.875V55.3123H22.5V40.3123H37.5V49.6873H39.375V42.6373L47.2594 38.1654L49.2282 39.2529C49.3707 39.3352 49.5324 39.3785 49.6969 39.3785C49.8615 39.3785 50.0232 39.3352 50.1657 39.2529L58.6032 34.5654C58.7445 34.4817 58.8613 34.3622 58.9419 34.2191C59.0226 34.0759 59.0642 33.9141 59.0625 33.7498V24.3748C59.0623 24.2087 59.0178 24.0456 58.9338 23.9023C58.8498 23.759 58.7292 23.6406 58.5844 23.5592ZM30 3.88107L36.5063 7.49982L30 11.1186L23.4938 7.49982L30 3.88107ZM37.5 9.09357V16.3217L30.9375 19.9686V12.7404L37.5 9.09357ZM22.5 9.09357L29.0625 12.7404V19.9686L22.5 16.3217V9.09357ZM9.37504 36.8436L2.81254 33.1967V25.9686L9.37504 29.6154V36.8436ZM10.3125 27.9936L3.80629 24.3748L10.3125 20.7561L16.8188 24.3748L10.3125 27.9936ZM11.25 36.8436V29.6154L17.8125 25.9686V33.1967L11.25 36.8436ZM39.375 40.4811V39.3748C39.375 39.1262 39.2763 38.8877 39.1005 38.7119C38.9246 38.5361 38.6862 38.4373 38.4375 38.4373H21.5625C21.3139 38.4373 21.0754 38.5361 20.8996 38.7119C20.7238 38.8877 20.625 39.1262 20.625 39.3748V40.4811L14.6532 37.0967L19.2094 34.5654C19.3542 34.484 19.4748 34.3656 19.5588 34.2223C19.6428 34.079 19.6873 33.9159 19.6875 33.7498V24.3748C19.6873 24.2087 19.6428 24.0456 19.5588 23.9023C19.4748 23.759 19.3542 23.6406 19.2094 23.5592L17.9907 22.8842L24.15 19.3873L29.5407 22.3779C29.6832 22.4602 29.8449 22.5035 30.0094 22.5035C30.174 22.5035 30.3356 22.4602 30.4782 22.3779L35.8688 19.3873L42.0282 22.8842L40.8094 23.5592C40.6611 23.6381 40.5368 23.7555 40.4493 23.899C40.3619 24.0425 40.3147 24.2068 40.3125 24.3748V33.7498C40.3128 33.9159 40.3573 34.079 40.4413 34.2223C40.5253 34.3656 40.6459 34.484 40.7907 34.5654L45.3469 37.0967L39.375 40.4811ZM48.75 36.8436L42.1875 33.1967V25.9686L48.75 29.6154V36.8436ZM49.6875 27.9936L43.1813 24.3748L49.6875 20.7561L56.1938 24.3748L49.6875 27.9936ZM57.1875 33.1967L50.625 36.8436V29.6154L57.1875 25.9686V33.1967Z" fill="white" />
    <path d="M58.5844 23.5592L50.1469 18.8717C50.0044 18.7894 49.8427 18.7461 49.6782 18.7461C49.5136 18.7461 49.3519 18.7894 49.2094 18.8717L43.9032 21.8154L37.7532 18.3186L38.8782 17.6904C39.0265 17.6115 39.1508 17.4941 39.2383 17.3506C39.3257 17.2072 39.3729 17.0428 39.375 16.8748V7.49982C39.3748 7.3337 39.3303 7.17064 39.2463 7.02732C39.1623 6.88401 39.0417 6.76559 38.8969 6.6842L30.4594 1.9967C30.3169 1.91441 30.1552 1.87109 29.9907 1.87109C29.8261 1.87109 29.6644 1.91441 29.5219 1.9967L21.0844 6.6842C20.9431 6.76798 20.8263 6.88742 20.7456 7.03057C20.665 7.17372 20.6234 7.33554 20.625 7.49982V16.8748C20.6253 17.0409 20.6698 17.204 20.7538 17.3473C20.8378 17.4906 20.9584 17.609 21.1032 17.6904L22.2282 18.3186L16.0782 21.8154L10.7719 18.8717C10.6294 18.7894 10.4677 18.7461 10.3032 18.7461C10.1386 18.7461 9.97694 18.7894 9.83442 18.8717L1.39692 23.5592C1.2556 23.643 1.13877 23.7624 1.05815 23.9056C0.977526 24.0487 0.935935 24.2105 0.937545 24.3748V33.7498C0.937831 33.9159 0.982253 34.079 1.06626 34.2223C1.15028 34.3656 1.27086 34.484 1.41567 34.5654L9.85317 39.2529C9.99569 39.3352 10.1574 39.3785 10.3219 39.3785C10.4865 39.3785 10.6482 39.3352 10.7907 39.2529L12.7594 38.1654L20.625 42.6373V56.2498C20.625 56.4985 20.7238 56.7369 20.8996 56.9127C21.0754 57.0886 21.3139 57.1873 21.5625 57.1873H31.875V55.3123H22.5V40.3123H37.5V49.6873H39.375V42.6373L47.2594 38.1654L49.2282 39.2529C49.3707 39.3352 49.5324 39.3785 49.6969 39.3785C49.8615 39.3785 50.0232 39.3352 50.1657 39.2529L58.6032 34.5654C58.7445 34.4817 58.8613 34.3622 58.9419 34.2191C59.0226 34.0759 59.0642 33.9141 59.0625 33.7498V24.3748C59.0623 24.2087 59.0178 24.0456 58.9338 23.9023C58.8498 23.759 58.7292 23.6406 58.5844 23.5592ZM30 3.88107L36.5063 7.49982L30 11.1186L23.4938 7.49982L30 3.88107ZM37.5 9.09357V16.3217L30.9375 19.9686V12.7404L37.5 9.09357ZM22.5 9.09357L29.0625 12.7404V19.9686L22.5 16.3217V9.09357ZM9.37504 36.8436L2.81254 33.1967V25.9686L9.37504 29.6154V36.8436ZM10.3125 27.9936L3.80629 24.3748L10.3125 20.7561L16.8188 24.3748L10.3125 27.9936ZM11.25 36.8436V29.6154L17.8125 25.9686V33.1967L11.25 36.8436ZM39.375 40.4811V39.3748C39.375 39.1262 39.2763 38.8877 39.1005 38.7119C38.9246 38.5361 38.6862 38.4373 38.4375 38.4373H21.5625C21.3139 38.4373 21.0754 38.5361 20.8996 38.7119C20.7238 38.8877 20.625 39.1262 20.625 39.3748V40.4811L14.6532 37.0967L19.2094 34.5654C19.3542 34.484 19.4748 34.3656 19.5588 34.2223C19.6428 34.079 19.6873 33.9159 19.6875 33.7498V24.3748C19.6873 24.2087 19.6428 24.0456 19.5588 23.9023C19.4748 23.759 19.3542 23.6406 19.2094 23.5592L17.9907 22.8842L24.15 19.3873L29.5407 22.3779C29.6832 22.4602 29.8449 22.5035 30.0094 22.5035C30.174 22.5035 30.3356 22.4602 30.4782 22.3779L35.8688 19.3873L42.0282 22.8842L40.8094 23.5592C40.6611 23.6381 40.5368 23.7555 40.4493 23.899C40.3619 24.0425 40.3147 24.2068 40.3125 24.3748V33.7498C40.3128 33.9159 40.3573 34.079 40.4413 34.2223C40.5253 34.3656 40.6459 34.484 40.7907 34.5654L45.3469 37.0967L39.375 40.4811ZM48.75 36.8436L42.1875 33.1967V25.9686L48.75 29.6154V36.8436ZM49.6875 27.9936L43.1813 24.3748L49.6875 20.7561L56.1938 24.3748L49.6875 27.9936ZM57.1875 33.1967L50.625 36.8436V29.6154L57.1875 25.9686V33.1967Z" stroke="#F6CB45" stroke-linejoin="round" mask="url(#path-2-outside-1_21_1185)" />
</svg>