<svg xmlns="http://www.w3.org/2000/svg" width="38" height="40" viewBox="0 0 38 40" fill="none">
    <g clip-path="url(#clip0_21_1136)">
        <path d="M24.9378 12.5C24.6228 12.5 24.3208 12.6317 24.0981 12.8661C23.8754 13.1005 23.7503 13.4185 23.7503 13.75V14.0625L17.7415 15.8625C17.6645 15.6139 17.5154 15.397 17.3152 15.2423C17.1149 15.0875 16.8736 15.0028 16.6253 15H14.2503C13.1647 15.0046 12.1134 15.4005 11.2714 16.1218C10.4294 16.8431 9.84749 17.8462 9.62259 18.9641C9.39769 20.082 9.54336 21.2473 10.0353 22.2659C10.5273 23.2846 11.3359 24.0951 12.3265 24.5625L13.0628 27.8C13.1002 27.9642 13.168 28.1189 13.2622 28.2555C13.3565 28.3921 13.4754 28.5078 13.6121 28.596C13.7488 28.6842 13.9007 28.7432 14.0591 28.7697C14.2175 28.7961 14.3793 28.7894 14.5353 28.75C14.6912 28.7106 14.8383 28.6393 14.968 28.54C15.0978 28.4408 15.2077 28.3157 15.2915 28.1718C15.3753 28.0278 15.4313 27.8679 15.4564 27.7012C15.4815 27.5345 15.4752 27.3642 15.4378 27.2L14.8796 25H16.6253C16.8736 24.9972 17.1149 24.9125 17.3152 24.7577C17.5154 24.603 17.6645 24.3861 17.7415 24.1375L23.7503 25.9375V26.25C23.7503 26.5815 23.8754 26.8995 24.0981 27.1339C24.3208 27.3683 24.6228 27.5 24.9378 27.5C25.2527 27.5 25.5548 27.3683 25.7775 27.1339C26.0001 26.8995 26.1253 26.5815 26.1253 26.25V13.75C26.1253 13.4185 26.0001 13.1005 25.7775 12.8661C25.5548 12.6317 25.2527 12.5 24.9378 12.5ZM14.2503 22.5C13.6204 22.5 13.0163 22.2366 12.5709 21.7678C12.1255 21.2989 11.8753 20.663 11.8753 20C11.8753 19.337 12.1255 18.7011 12.5709 18.2322C13.0163 17.7634 13.6204 17.5 14.2503 17.5H15.4378V22.5H14.2503ZM17.8128 21.5625V18.4375L23.7503 16.6625V23.3375L17.8128 21.5625Z" fill="#F6CB45" />
        <path d="M35.9694 13.3875C36.1355 13.5638 36.3477 13.684 36.579 13.7329C36.8102 13.7817 37.0501 13.7569 37.2679 13.6617C37.4857 13.5665 37.6717 13.4052 37.8021 13.1983C37.9325 12.9914 38.0014 12.7483 38 12.5V1.25002C38 0.918501 37.8749 0.600558 37.6522 0.366138C37.4295 0.131717 37.1275 2.11462e-05 36.8125 2.11462e-05H26.125C25.8892 -0.00142272 25.6582 0.0711045 25.4617 0.208356C25.2651 0.345607 25.1118 0.541364 25.0214 0.770669C24.9309 0.999974 24.9074 1.25244 24.9538 1.49587C25.0002 1.73931 25.1144 1.96268 25.2819 2.13752L28.0131 5.00002L26.125 7.01252C23.9587 5.696 21.5014 5.0029 19 5.0029C16.4986 5.0029 14.0413 5.696 11.875 7.01252L9.98689 5.00002L12.7181 2.13752C12.8856 1.96268 12.9998 1.73931 13.0462 1.49587C13.0926 1.25244 13.0691 0.999974 12.9786 0.770669C12.8882 0.541364 12.7349 0.345607 12.5384 0.208356C12.3418 0.0711045 12.1109 -0.00142272 11.875 2.11462e-05H1.18752C0.872575 2.11462e-05 0.57053 0.131717 0.347831 0.366138C0.125131 0.600558 2.00889e-05 0.918501 2.00889e-05 1.25002V12.5C-0.00135159 12.7483 0.0675492 12.9914 0.197938 13.1983C0.328327 13.4052 0.514296 13.5665 0.732136 13.6617C0.949975 13.7569 1.18982 13.7817 1.42108 13.7329C1.65234 13.684 1.86455 13.5638 2.03064 13.3875L4.75002 10.5125L6.65002 12.5C6.29154 13.1529 5.98185 13.8341 5.72377 14.5375C5.65366 14.6928 5.61475 14.8617 5.60947 15.0336C5.6042 15.2055 5.63267 15.3766 5.6931 15.5364C5.75354 15.6962 5.84464 15.8411 5.96071 15.9621C6.07678 16.0831 6.21532 16.1776 6.36767 16.2397C6.52002 16.3018 6.6829 16.3301 6.84612 16.3229C7.00934 16.3157 7.1694 16.2731 7.31627 16.1978C7.46315 16.1225 7.59368 16.0161 7.69972 15.8853C7.80575 15.7545 7.88501 15.6021 7.93252 15.4375C9.00462 12.5358 11.0669 10.1596 13.7157 8.77417C16.3645 7.3887 19.4092 7.09364 22.2537 7.94674C25.0983 8.79983 27.5381 10.7397 29.0955 13.3866C30.6529 16.0335 31.2158 19.1969 30.6741 22.2577C30.1324 25.3185 28.525 28.0564 26.1666 29.9353C23.8082 31.8143 20.8685 32.6992 17.9229 32.4168C14.9773 32.1344 12.2378 30.7051 10.2407 28.4085C8.24356 26.1119 7.13251 23.1135 7.12502 20C7.12502 19.6685 6.99991 19.3506 6.77721 19.1161C6.55451 18.8817 6.25246 18.75 5.93752 18.75C5.62257 18.75 5.32053 18.8817 5.09783 19.1161C4.87513 19.3506 4.75002 19.6685 4.75002 20C4.74578 22.634 5.40552 25.2221 6.66189 27.5L4.75002 29.4875L2.03064 26.6125C1.86455 26.4362 1.65234 26.316 1.42108 26.2672C1.18982 26.2183 0.949975 26.2431 0.732136 26.3383C0.514296 26.4335 0.328327 26.5949 0.197938 26.8018C0.0675492 27.0087 -0.00135159 27.2517 2.00889e-05 27.5V38.75C2.00889e-05 39.0815 0.125131 39.3995 0.347831 39.6339C0.57053 39.8683 0.872575 40 1.18752 40H11.875C12.1109 40.0015 12.3418 39.9289 12.5384 39.7917C12.7349 39.6544 12.8882 39.4587 12.9786 39.2294C13.0691 39.0001 13.0926 38.7476 13.0462 38.5042C12.9998 38.2607 12.8856 38.0374 12.7181 37.8625L9.98689 35L11.875 32.9875C14.0369 34.3177 16.4959 35.0187 19 35.0187C21.5041 35.0187 23.9631 34.3177 26.125 32.9875L28.0131 35L25.2819 37.8625C25.1144 38.0374 25.0002 38.2607 24.9538 38.5042C24.9074 38.7476 24.9309 39.0001 25.0214 39.2294C25.1118 39.4587 25.2651 39.6544 25.4617 39.7917C25.6582 39.9289 25.8892 40.0015 26.125 40H36.8125C37.1275 40 37.4295 39.8683 37.6522 39.6339C37.8749 39.3995 38 39.0815 38 38.75V27.5C38.0014 27.2517 37.9325 27.0087 37.8021 26.8018C37.6717 26.5949 37.4857 26.4335 37.2679 26.3383C37.0501 26.2431 36.8102 26.2183 36.579 26.2672C36.3477 26.316 36.1355 26.4362 35.9694 26.6125L33.25 29.4875L31.3381 27.5C32.5982 25.2231 33.2621 22.6351 33.2621 20C33.2621 17.3649 32.5982 14.777 31.3381 12.5L33.25 10.5125L35.9694 13.3875ZM5.59314 7.86252C5.48275 7.74536 5.35141 7.65237 5.2067 7.58891C5.062 7.52545 4.90678 7.49277 4.75002 7.49277C4.59326 7.49277 4.43804 7.52545 4.29333 7.58891C4.14863 7.65237 4.01729 7.74536 3.90689 7.86252L2.37502 9.48752V2.50002H9.01314L7.46939 4.11252C7.35809 4.22872 7.26975 4.36698 7.20946 4.5193C7.14917 4.67162 7.11813 4.83501 7.11813 5.00002C7.11813 5.16504 7.14917 5.32842 7.20946 5.48074C7.26975 5.63307 7.35809 5.77132 7.46939 5.88752L9.90377 8.38752C9.21417 9.00182 8.58192 9.68409 8.01564 10.425L5.59314 7.86252ZM7.46939 35.8875L9.01314 37.5H2.37502V30.5125L3.90689 32.1375C4.01729 32.2547 4.14863 32.3477 4.29333 32.4111C4.43804 32.4746 4.59326 32.5073 4.75002 32.5073C4.90678 32.5073 5.062 32.4746 5.2067 32.4111C5.35141 32.3477 5.48275 32.2547 5.59314 32.1375L8.02752 29.5625C8.5961 30.2861 9.22828 30.9515 9.91564 31.55L7.46939 34.1125C7.35809 34.2287 7.26975 34.367 7.20946 34.5193C7.14917 34.6716 7.11813 34.835 7.11813 35C7.11813 35.165 7.14917 35.3284 7.20946 35.4807C7.26975 35.6331 7.35809 35.7713 7.46939 35.8875ZM32.4069 32.1375C32.5173 32.2547 32.6486 32.3477 32.7933 32.4111C32.938 32.4746 33.0933 32.5073 33.25 32.5073C33.4068 32.5073 33.562 32.4746 33.7067 32.4111C33.8514 32.3477 33.9827 32.2547 34.0931 32.1375L35.625 30.5125V37.5H28.9869L30.5306 35.8875C30.6419 35.7713 30.7303 35.6331 30.7906 35.4807C30.8509 35.3284 30.8819 35.165 30.8819 35C30.8819 34.835 30.8509 34.6716 30.7906 34.5193C30.7303 34.367 30.6419 34.2287 30.5306 34.1125L28.0844 31.55C28.7718 30.9515 29.4039 30.2861 29.9725 29.5625L32.4069 32.1375ZM29.9725 10.4375C29.4039 9.71398 28.7718 9.04852 28.0844 8.45002L30.5306 5.95002C30.6419 5.83382 30.7303 5.69557 30.7906 5.54324C30.8509 5.39092 30.8819 5.22754 30.8819 5.06252C30.8819 4.89751 30.8509 4.73412 30.7906 4.5818C30.7303 4.42948 30.6419 4.29122 30.5306 4.17502L28.9869 2.50002H35.625V9.48752L34.0931 7.86252C33.9827 7.74536 33.8514 7.65237 33.7067 7.58891C33.562 7.52545 33.4068 7.49277 33.25 7.49277C33.0933 7.49277 32.938 7.52545 32.7933 7.58891C32.6486 7.65237 32.5173 7.74536 32.4069 7.86252L29.9725 10.4375Z" fill="#F6CB45" />
    </g>
    <defs>
        <clipPath id="clip0_21_1136">
            <rect width="38" height="40" fill="white" />
        </clipPath>
    </defs>
</svg>